<svg width="44" height="44" viewBox="0 0 44 44" fill="none" xmlns="http://www.w3.org/2000/svg">
<g id="Group Copy 2">
<path id="Shape" fill-rule="evenodd" clip-rule="evenodd" d="M39.0077 27.8802C41.9143 19.6184 38.5243 10.458 30.9396 6.07874C25.3997 2.88005 18.5872 2.82469 12.9961 5.93293C7.4049 9.04116 3.85608 14.8566 3.64875 21.2503L3.63965 21.8399L3.64875 22.4296C3.93242 31.1832 10.4105 38.4934 19.0664 39.8277C27.7223 41.162 36.1011 36.142 39.0077 27.8802ZM16.7618 17.0817C17.3253 16.3567 18.3406 16.165 19.1297 16.6347L19.3153 16.7621L19.4864 16.9132L21.8396 19.2646L24.1929 16.9132C24.8726 16.2358 25.9616 16.2025 26.6814 16.8372C27.4011 17.4719 27.5045 18.5564 26.9174 19.3156L26.7664 19.4867L24.4149 21.8399L26.7664 24.1932C27.4438 24.8729 27.4771 25.9619 26.8424 26.6816C26.2077 27.4014 25.1232 27.5048 24.364 26.9177L24.1929 26.7667L21.8396 24.4152L19.4864 26.7667C18.8067 27.4441 17.7177 27.4774 16.9979 26.8427C16.2781 26.208 16.1748 25.1235 16.7618 24.3643L16.9129 24.1932L19.2643 21.8399L16.9129 19.4867C16.263 18.8379 16.1982 17.8067 16.7618 17.0817Z" fill="#E02020"/>
</g>
</svg>
