<svg width="32" height="32" viewBox="0 0 32 32" fill="none" xmlns="http://www.w3.org/2000/svg">
<g id="Icons">
<g id="info-circle">
<path id="Vector" d="M16.125 18.3125C15.6637 18.3125 15.2812 17.93 15.2812 17.4688V11.8438C15.2812 11.3825 15.6637 11 16.125 11C16.5862 11 16.9688 11.3825 16.9688 11.8438V17.4688C16.9688 17.93 16.5862 18.3125 16.125 18.3125Z" fill="#262626"/>
<path id="Vector_2" d="M16.125 21.969C15.9787 21.969 15.8325 21.9352 15.6975 21.879C15.5625 21.8227 15.4387 21.744 15.3262 21.6427C15.225 21.5302 15.1462 21.4177 15.09 21.2715C15.0337 21.1365 15 20.9902 15 20.844C15 20.6977 15.0337 20.5515 15.09 20.4165C15.1462 20.2815 15.225 20.1577 15.3262 20.0452C15.4387 19.944 15.5625 19.8652 15.6975 19.809C15.9675 19.6965 16.2825 19.6965 16.5525 19.809C16.6875 19.8652 16.8113 19.944 16.9238 20.0452C17.025 20.1577 17.1037 20.2815 17.16 20.4165C17.2163 20.5515 17.25 20.6977 17.25 20.844C17.25 20.9902 17.2163 21.1365 17.16 21.2715C17.1037 21.4177 17.025 21.5302 16.9238 21.6427C16.8113 21.744 16.6875 21.8227 16.5525 21.879C16.4175 21.9352 16.2713 21.969 16.125 21.969Z" fill="#262626"/>
</g>
</g>
</svg>
