<svg width="16" height="16" viewBox="0 0 16 16" fill="none" xmlns="http://www.w3.org/2000/svg">
<g id="Frame" clip-path="url(#clip0_275_10532)">
<path id="Vector" d="M11.3335 2.22627C12.339 2.80684 13.1755 3.63995 13.76 4.64314C14.3446 5.64632 14.6571 6.78478 14.6664 7.94583C14.6758 9.10687 14.3818 10.2502 13.8135 11.2627C13.2452 12.2752 12.4223 13.1217 11.4263 13.7185C10.4303 14.3152 9.29574 14.6415 8.13489 14.665C6.97405 14.6885 5.8272 14.4084 4.80787 13.8524C3.78854 13.2965 2.93208 12.484 2.32327 11.4953C1.71447 10.5066 1.37444 9.37608 1.33683 8.2156L1.3335 7.9996L1.33683 7.7836C1.37416 6.63226 1.70919 5.51024 2.30926 4.52693C2.90932 3.54362 3.75393 2.73257 4.76076 2.17286C5.76758 1.61314 6.90226 1.32387 8.05417 1.33323C9.20607 1.34259 10.3359 1.65027 11.3335 2.22627ZM7.0075 6.09294C6.86782 6.00979 6.70257 5.98054 6.54284 6.01069C6.3831 6.04084 6.23989 6.12831 6.14013 6.25666C6.04037 6.385 5.99094 6.54537 6.00114 6.70761C6.01133 6.86984 6.08045 7.02276 6.1955 7.1376L7.05683 7.9996L6.1955 8.8616L6.14016 8.92427C6.03655 9.05826 5.98783 9.22667 6.0039 9.39529C6.01996 9.5639 6.0996 9.72008 6.22664 9.8321C6.35369 9.94413 6.51861 10.0036 6.68791 9.99842C6.85721 9.99325 7.01819 9.92383 7.13816 9.80427L8.00016 8.94294L8.86216 9.80427L8.92483 9.8596C9.05882 9.96321 9.22723 10.0119 9.39585 9.99587C9.56446 9.97981 9.72064 9.90017 9.83266 9.77312C9.94469 9.64608 10.0042 9.48116 9.99898 9.31186C9.99381 9.14256 9.92439 8.98158 9.80483 8.8616L8.9435 7.9996L9.80483 7.1376L9.86016 7.07494C9.96377 6.94094 10.0125 6.77253 9.99643 6.60392C9.98037 6.4353 9.90072 6.27912 9.77368 6.1671C9.64664 6.05508 9.48172 5.99561 9.31242 6.00078C9.14312 6.00595 8.98213 6.07537 8.86216 6.19494L8.00016 7.05627L7.13816 6.19494L7.0755 6.1396L7.0075 6.09294Z" fill="#7C7C7C"/>
</g>
<defs>
<clipPath id="clip0_275_10532">
<rect width="16" height="16" fill="white"/>
</clipPath>
</defs>
</svg>
