<svg width="44" height="44" viewBox="0 0 44 44" fill="none" xmlns="http://www.w3.org/2000/svg">
<g id="Group Copy 3">
<path id="Shape" fill-rule="evenodd" clip-rule="evenodd" d="M42.7505 29.3C46.2637 19.3136 42.1662 8.2411 32.9984 2.94765C26.3021 -0.918746 18.0676 -0.985662 11.3094 2.7714C4.55118 6.52845 0.26161 13.5578 0.0109995 21.2861L0 21.9989L0.0109995 22.7117C0.353876 33.2925 8.18413 42.1286 18.6468 43.7415C29.1095 45.3543 39.2372 39.2864 42.7505 29.3ZM27.25 15.8611C28.1258 15.1818 29.3701 15.26 30.1539 16.0437C30.9376 16.8275 31.0158 18.0719 30.3365 18.9476L30.1539 19.1544L21.3543 27.9541L21.1475 28.1367C20.3539 28.7524 19.2441 28.7524 18.4505 28.1367L18.2437 27.9541L13.8439 23.5542L13.6613 23.3474C12.9825 22.4717 13.061 21.2277 13.8445 20.4441C14.628 19.6606 15.872 19.5821 16.7478 20.261L16.9546 20.4436L19.799 23.2858L27.0433 16.0437L27.25 15.8611Z" fill="#1FA72A"/>
</g>
</svg>
