<svg width="24" height="24" viewBox="0 0 24 24" fill="none" xmlns="http://www.w3.org/2000/svg">
<g id="u:info-circle">
<path id="Vector" d="M12 11.001C11.7348 11.001 11.4804 11.1063 11.2929 11.2939C11.1054 11.4814 11 11.7358 11 12.001V16.001C11 16.2662 11.1054 16.5205 11.2929 16.7081C11.4804 16.8956 11.7348 17.001 12 17.001C12.2652 17.001 12.5196 16.8956 12.7071 16.7081C12.8946 16.5205 13 16.2662 13 16.001V12.001C13 11.7358 12.8946 11.4814 12.7071 11.2939C12.5196 11.1063 12.2652 11.001 12 11.001ZM12.38 7.08098C12.1365 6.98096 11.8635 6.98096 11.62 7.08098C11.4973 7.12857 11.3851 7.19994 11.29 7.29098C11.2017 7.38818 11.1306 7.49979 11.08 7.62098C11.024 7.73966 10.9966 7.8698 11 8.00098C10.9992 8.13258 11.0245 8.26305 11.0742 8.38488C11.124 8.50672 11.1973 8.61754 11.29 8.71098C11.3872 8.79931 11.4988 8.87033 11.62 8.92098C11.7715 8.98322 11.936 9.00729 12.099 8.99109C12.2619 8.97488 12.4184 8.9189 12.5547 8.82805C12.691 8.73719 12.8029 8.61426 12.8805 8.47005C12.9582 8.32584 12.9992 8.16476 13 8.00098C12.9963 7.73621 12.8927 7.48261 12.71 7.29098C12.6149 7.19994 12.5028 7.12857 12.38 7.08098ZM12 2.00098C10.0222 2.00098 8.08879 2.58747 6.4443 3.68628C4.79981 4.78509 3.51809 6.34688 2.76121 8.17414C2.00433 10.0014 1.8063 12.0121 2.19215 13.9519C2.578 15.8917 3.53041 17.6735 4.92894 19.072C6.32746 20.4706 8.10929 21.423 10.0491 21.8088C11.9889 22.1947 13.9996 21.9966 15.8268 21.2398C17.6541 20.4829 19.2159 19.2012 20.3147 17.5567C21.4135 15.9122 22 13.9788 22 12.001C22 10.6878 21.7413 9.3874 21.2388 8.17414C20.7363 6.96089 19.9997 5.85849 19.0711 4.92991C18.1425 4.00132 17.0401 3.26473 15.8268 2.76218C14.6136 2.25963 13.3132 2.00098 12 2.00098ZM12 20.001C10.4178 20.001 8.87104 19.5318 7.55544 18.6527C6.23985 17.7737 5.21447 16.5243 4.60897 15.0624C4.00347 13.6006 3.84504 11.9921 4.15372 10.4403C4.4624 8.88841 5.22433 7.46294 6.34315 6.34412C7.46197 5.2253 8.88743 4.46338 10.4393 4.15469C11.9911 3.84601 13.5997 4.00444 15.0615 4.60994C16.5233 5.21544 17.7727 6.24082 18.6518 7.55641C19.5308 8.87201 20 10.4187 20 12.001C20 14.1227 19.1572 16.1575 17.6569 17.6578C16.1566 19.1581 14.1217 20.001 12 20.001Z" fill="#FFFDF7"/>
</g>
</svg>
