<svg width="16" height="16" viewBox="0 0 16 16" fill="none" xmlns="http://www.w3.org/2000/svg">
<g id="Close">
<path id="Vector" d="M8.94004 8.0011L13.14 3.80777C13.2656 3.68223 13.3361 3.51197 13.3361 3.33443C13.3361 3.1569 13.2656 2.98664 13.14 2.8611C13.0145 2.73556 12.8442 2.66504 12.6667 2.66504C12.4892 2.66504 12.3189 2.73556 12.1934 2.8611L8.00004 7.0611L3.80671 2.8611C3.68117 2.73556 3.51091 2.66504 3.33337 2.66504C3.15584 2.66504 2.98558 2.73556 2.86004 2.8611C2.7345 2.98664 2.66398 3.1569 2.66398 3.33443C2.66398 3.51197 2.7345 3.68223 2.86004 3.80777L7.06004 8.0011L2.86004 12.1944C2.79756 12.2564 2.74796 12.3301 2.71411 12.4114C2.68027 12.4926 2.66284 12.5798 2.66284 12.6678C2.66284 12.7558 2.68027 12.8429 2.71411 12.9242C2.74796 13.0054 2.79756 13.0791 2.86004 13.1411C2.92202 13.2036 2.99575 13.2532 3.07699 13.287C3.15823 13.3209 3.24537 13.3383 3.33337 13.3383C3.42138 13.3383 3.50852 13.3209 3.58976 13.287C3.671 13.2532 3.74473 13.2036 3.80671 13.1411L8.00004 8.9411L12.1934 13.1411C12.2554 13.2036 12.3291 13.2532 12.4103 13.287C12.4916 13.3209 12.5787 13.3383 12.6667 13.3383C12.7547 13.3383 12.8419 13.3209 12.9231 13.287C13.0043 13.2532 13.0781 13.2036 13.14 13.1411C13.2025 13.0791 13.2521 13.0054 13.286 12.9242C13.3198 12.8429 13.3372 12.7558 13.3372 12.6678C13.3372 12.5798 13.3198 12.4926 13.286 12.4114C13.2521 12.3301 13.2025 12.2564 13.14 12.1944L8.94004 8.0011Z" fill="#FFC4C4"/>
</g>
</svg>
